<mxfile host="app.diagrams.net" modified="2023-02-02T15:05:29.068Z" agent="5.0 (Macintosh; Intel Mac OS X 10_15_7) AppleWebKit/537.36 (KHTML, like Gecko) Chrome/109.0.0.0 Safari/537.36" etag="U7HYlSBjyuAP_aSpPW_4" version="20.8.15" type="github">
  <diagram name="Pagina-1" id="2gnQn5dsZddcRE8RK6tl">
    <mxGraphModel dx="1622" dy="540" grid="1" gridSize="10" guides="1" tooltips="1" connect="1" arrows="1" fold="1" page="1" pageScale="1" pageWidth="827" pageHeight="1169" math="0" shadow="0">
      <root>
        <mxCell id="0" />
        <mxCell id="1" parent="0" />
        <mxCell id="HYb9EO3i7QYgC3tbqvvC-1" value="" style="rounded=0;whiteSpace=wrap;html=1;" parent="1" vertex="1">
          <mxGeometry x="120" y="40" width="560" height="800" as="geometry" />
        </mxCell>
        <mxCell id="HYb9EO3i7QYgC3tbqvvC-2" value="&lt;b&gt;&lt;font style=&quot;font-size: 16px;&quot;&gt;OUTSOURCING HUB&lt;/font&gt;&lt;/b&gt;" style="text;html=1;align=center;verticalAlign=middle;resizable=0;points=[];autosize=1;strokeColor=none;fillColor=none;" parent="1" vertex="1">
          <mxGeometry x="324" y="50" width="180" height="30" as="geometry" />
        </mxCell>
        <mxCell id="tnNtf27b05TNXS0torjV-16" style="edgeStyle=none;rounded=0;orthogonalLoop=1;jettySize=auto;html=1;entryX=0;entryY=0.5;entryDx=0;entryDy=0;startArrow=none;startFill=0;strokeColor=default;endArrow=none;endFill=0;strokeWidth=1;" parent="1" target="tnNtf27b05TNXS0torjV-5" edge="1">
          <mxGeometry relative="1" as="geometry">
            <mxPoint x="20" y="360" as="sourcePoint" />
          </mxGeometry>
        </mxCell>
        <mxCell id="tnNtf27b05TNXS0torjV-20" style="edgeStyle=none;rounded=0;orthogonalLoop=1;jettySize=auto;html=1;entryX=0;entryY=0.5;entryDx=0;entryDy=0;strokeColor=default;strokeWidth=1;startArrow=none;startFill=0;endArrow=none;endFill=0;" parent="1" target="tnNtf27b05TNXS0torjV-19" edge="1">
          <mxGeometry relative="1" as="geometry">
            <mxPoint x="20" y="360" as="sourcePoint" />
          </mxGeometry>
        </mxCell>
        <mxCell id="tnNtf27b05TNXS0torjV-27" style="edgeStyle=none;rounded=0;orthogonalLoop=1;jettySize=auto;html=1;entryX=0;entryY=0.5;entryDx=0;entryDy=0;strokeColor=default;strokeWidth=1;fontSize=10;startArrow=none;startFill=0;endArrow=none;endFill=0;" parent="1" target="tnNtf27b05TNXS0torjV-22" edge="1">
          <mxGeometry relative="1" as="geometry">
            <mxPoint x="20" y="360" as="sourcePoint" />
          </mxGeometry>
        </mxCell>
        <mxCell id="HYb9EO3i7QYgC3tbqvvC-3" value="Company" style="shape=umlActor;verticalLabelPosition=bottom;verticalAlign=top;html=1;outlineConnect=0;fontSize=16;" parent="1" vertex="1">
          <mxGeometry x="-20" y="320" width="30" height="60" as="geometry" />
        </mxCell>
        <mxCell id="tnNtf27b05TNXS0torjV-5" value="&lt;font style=&quot;font-size: 10px;&quot;&gt;SIGN IN&lt;/font&gt;" style="ellipse;whiteSpace=wrap;html=1;fillColor=#f8cecc;strokeColor=#b85450;" parent="1" vertex="1">
          <mxGeometry x="170" y="250" width="90" height="40" as="geometry" />
        </mxCell>
        <mxCell id="tnNtf27b05TNXS0torjV-7" value="&lt;font style=&quot;font-size: 9px;&quot;&gt;INCORRECT&lt;br style=&quot;font-size: 9px;&quot;&gt;CREDENTIALS&lt;/font&gt;" style="ellipse;whiteSpace=wrap;html=1;fillColor=#dae8fc;strokeColor=#6c8ebf;fontSize=9;strokeWidth=1;fillStyle=hatch;" parent="1" vertex="1">
          <mxGeometry x="570" y="190" width="90" height="30" as="geometry" />
        </mxCell>
        <mxCell id="tnNtf27b05TNXS0torjV-14" value="&amp;lt;&amp;lt;extends&amp;gt;&amp;gt;" style="endArrow=block;endFill=0;html=1;rounded=0;dashed=1;exitX=0;exitY=0.5;exitDx=0;exitDy=0;entryX=1;entryY=0.5;entryDx=0;entryDy=0;" parent="1" source="tnNtf27b05TNXS0torjV-7" target="tnNtf27b05TNXS0torjV-5" edge="1">
          <mxGeometry x="-0.0053" width="160" relative="1" as="geometry">
            <mxPoint x="320" y="270" as="sourcePoint" />
            <mxPoint x="480" y="270" as="targetPoint" />
            <Array as="points">
              <mxPoint x="340" y="240" />
            </Array>
            <mxPoint as="offset" />
          </mxGeometry>
        </mxCell>
        <mxCell id="tnNtf27b05TNXS0torjV-19" value="&lt;font style=&quot;font-size: 10px;&quot;&gt;SIGN UP&lt;/font&gt;" style="ellipse;whiteSpace=wrap;html=1;fillColor=#f8cecc;strokeColor=#b85450;" parent="1" vertex="1">
          <mxGeometry x="196.5" y="350" width="90" height="40" as="geometry" />
        </mxCell>
        <mxCell id="tnNtf27b05TNXS0torjV-22" value="&lt;font style=&quot;font-size: 10px;&quot;&gt;VIEW&amp;nbsp;&lt;br&gt;PROFILE&lt;/font&gt;" style="ellipse;whiteSpace=wrap;html=1;fillColor=#f8cecc;strokeColor=#b85450;" parent="1" vertex="1">
          <mxGeometry x="290" y="470" width="90" height="40" as="geometry" />
        </mxCell>
        <mxCell id="tnNtf27b05TNXS0torjV-23" value="&lt;font style=&quot;font-size: 9px;&quot;&gt;EDIT&lt;br style=&quot;font-size: 9px;&quot;&gt;COMPANY INFO&lt;br style=&quot;font-size: 9px;&quot;&gt;&lt;/font&gt;" style="ellipse;whiteSpace=wrap;html=1;fillColor=#dae8fc;strokeColor=#6c8ebf;fontSize=9;strokeWidth=1;fillStyle=hatch;" parent="1" vertex="1">
          <mxGeometry x="542" y="410" width="96" height="50" as="geometry" />
        </mxCell>
        <mxCell id="tnNtf27b05TNXS0torjV-28" value="&lt;font style=&quot;font-size: 9px;&quot;&gt;RETRIEVE&lt;br style=&quot;font-size: 9px;&quot;&gt;PASSWORD&lt;/font&gt;" style="ellipse;whiteSpace=wrap;html=1;fillColor=#dae8fc;strokeColor=#6c8ebf;fontSize=9;strokeWidth=1;fillStyle=hatch;" parent="1" vertex="1">
          <mxGeometry x="470" y="100" width="80" height="40" as="geometry" />
        </mxCell>
        <mxCell id="tnNtf27b05TNXS0torjV-29" value="&amp;lt;&amp;lt;extends&amp;gt;&amp;gt;" style="endArrow=block;endFill=0;html=1;rounded=0;dashed=1;exitX=0;exitY=0.5;exitDx=0;exitDy=0;entryX=0.5;entryY=0;entryDx=0;entryDy=0;" parent="1" source="tnNtf27b05TNXS0torjV-28" target="tnNtf27b05TNXS0torjV-5" edge="1">
          <mxGeometry x="-0.0091" width="160" relative="1" as="geometry">
            <mxPoint x="190" y="230" as="sourcePoint" />
            <mxPoint x="120" y="195" as="targetPoint" />
            <Array as="points">
              <mxPoint x="350" y="170" />
            </Array>
            <mxPoint as="offset" />
          </mxGeometry>
        </mxCell>
        <mxCell id="tnNtf27b05TNXS0torjV-30" value="&lt;font style=&quot;font-size: 9px;&quot;&gt;EDIT&lt;br style=&quot;font-size: 9px;&quot;&gt;PORTFOLIO&lt;br style=&quot;font-size: 9px;&quot;&gt;&lt;/font&gt;" style="ellipse;whiteSpace=wrap;html=1;fillColor=#dae8fc;strokeColor=#6c8ebf;fontSize=9;strokeWidth=1;fillStyle=hatch;" parent="1" vertex="1">
          <mxGeometry x="550" y="480" width="80" height="40" as="geometry" />
        </mxCell>
        <mxCell id="tnNtf27b05TNXS0torjV-34" value="&amp;lt;&amp;lt;extends&amp;gt;&amp;gt;" style="endArrow=block;endFill=0;html=1;rounded=0;dashed=1;exitX=0;exitY=0.5;exitDx=0;exitDy=0;entryX=1;entryY=0;entryDx=0;entryDy=0;" parent="1" source="tnNtf27b05TNXS0torjV-23" target="tnNtf27b05TNXS0torjV-22" edge="1">
          <mxGeometry x="-0.0012" width="160" relative="1" as="geometry">
            <mxPoint x="350.00000000000273" y="185" as="sourcePoint" />
            <mxPoint x="260" y="245" as="targetPoint" />
            <mxPoint as="offset" />
          </mxGeometry>
        </mxCell>
        <mxCell id="tnNtf27b05TNXS0torjV-35" value="&amp;lt;&amp;lt;extends&amp;gt;&amp;gt;" style="endArrow=block;endFill=0;html=1;rounded=0;dashed=1;exitX=0.226;exitY=0.053;exitDx=0;exitDy=0;exitPerimeter=0;" parent="1" source="tnNtf27b05TNXS0torjV-30" edge="1">
          <mxGeometry x="-0.0014" width="160" relative="1" as="geometry">
            <mxPoint x="250" y="430.0000000000001" as="sourcePoint" />
            <mxPoint x="380" y="490" as="targetPoint" />
            <Array as="points" />
            <mxPoint as="offset" />
          </mxGeometry>
        </mxCell>
        <mxCell id="tnNtf27b05TNXS0torjV-36" value="&amp;lt;&amp;lt;extends&amp;gt;&amp;gt;" style="endArrow=block;endFill=0;html=1;rounded=0;dashed=1;exitX=0;exitY=0.5;exitDx=0;exitDy=0;entryX=0.93;entryY=0.738;entryDx=0;entryDy=0;entryPerimeter=0;" parent="1" source="tnNtf27b05TNXS0torjV-38" target="tnNtf27b05TNXS0torjV-19" edge="1">
          <mxGeometry x="-0.0018" width="160" relative="1" as="geometry">
            <mxPoint x="250" y="430.0000000000001" as="sourcePoint" />
            <mxPoint x="250" y="300" as="targetPoint" />
            <Array as="points" />
            <mxPoint as="offset" />
          </mxGeometry>
        </mxCell>
        <mxCell id="tnNtf27b05TNXS0torjV-38" value="&lt;font style=&quot;font-size: 9px;&quot;&gt;CONTINUE WITH&amp;nbsp;&lt;br style=&quot;font-size: 9px;&quot;&gt;GOOGLE&lt;br style=&quot;font-size: 9px;&quot;&gt;&lt;/font&gt;" style="ellipse;whiteSpace=wrap;html=1;fillColor=#dae8fc;strokeColor=#6c8ebf;fontSize=9;strokeWidth=1;fillStyle=hatch;" parent="1" vertex="1">
          <mxGeometry x="444" y="370" width="80" height="35" as="geometry" />
        </mxCell>
        <mxCell id="tnNtf27b05TNXS0torjV-39" value="&lt;font style=&quot;font-size: 9px;&quot;&gt;CONTINUE WITH&amp;nbsp;&lt;br style=&quot;font-size: 9px;&quot;&gt;GITHUB&lt;br style=&quot;font-size: 9px;&quot;&gt;&lt;/font&gt;" style="ellipse;whiteSpace=wrap;html=1;fillColor=#dae8fc;strokeColor=#6c8ebf;fontSize=9;strokeWidth=1;fillStyle=hatch;" parent="1" vertex="1">
          <mxGeometry x="414" y="250" width="96" height="50" as="geometry" />
        </mxCell>
        <mxCell id="tnNtf27b05TNXS0torjV-41" value="&amp;lt;&amp;lt;extends&amp;gt;&amp;gt;" style="endArrow=block;endFill=0;html=1;rounded=0;dashed=1;exitX=0;exitY=0.5;exitDx=0;exitDy=0;entryX=0.982;entryY=0.404;entryDx=0;entryDy=0;entryPerimeter=0;" parent="1" source="tnNtf27b05TNXS0torjV-39" target="tnNtf27b05TNXS0torjV-19" edge="1">
          <mxGeometry x="-0.0018" width="160" relative="1" as="geometry">
            <mxPoint x="260" y="310.0000000000001" as="sourcePoint" />
            <mxPoint x="362" y="335.0000000000001" as="targetPoint" />
            <Array as="points" />
            <mxPoint as="offset" />
          </mxGeometry>
        </mxCell>
        <mxCell id="pXMp4Kn1TM848HMNzgxB-1" value="&amp;lt;&amp;lt;include&amp;gt;&amp;gt;" style="html=1;verticalAlign=bottom;labelBackgroundColor=none;endArrow=open;endFill=0;dashed=1;rounded=0;exitX=0.744;exitY=0.1;exitDx=0;exitDy=0;exitPerimeter=0;entryX=0;entryY=0.5;entryDx=0;entryDy=0;" parent="1" source="tnNtf27b05TNXS0torjV-5" target="pXMp4Kn1TM848HMNzgxB-2" edge="1">
          <mxGeometry x="0.1589" y="-6" width="160" relative="1" as="geometry">
            <mxPoint x="288" y="140" as="sourcePoint" />
            <mxPoint x="450" y="130" as="targetPoint" />
            <mxPoint as="offset" />
            <Array as="points">
              <mxPoint x="390" y="190" />
            </Array>
          </mxGeometry>
        </mxCell>
        <mxCell id="pXMp4Kn1TM848HMNzgxB-2" value="&lt;font style=&quot;font-size: 9px;&quot;&gt;VERIFY PASSWORD&lt;/font&gt;" style="ellipse;whiteSpace=wrap;html=1;fillColor=#dae8fc;strokeColor=#6c8ebf;fontSize=9;strokeWidth=1;fillStyle=hatch;" parent="1" vertex="1">
          <mxGeometry x="550" y="140" width="90" height="40" as="geometry" />
        </mxCell>
        <mxCell id="pXMp4Kn1TM848HMNzgxB-8" value="&lt;font size=&quot;1&quot;&gt;VIEW REVIEW AND FEEDBACK&lt;/font&gt;" style="ellipse;whiteSpace=wrap;html=1;fillColor=#f8cecc;strokeColor=#b85450;" parent="1" vertex="1">
          <mxGeometry x="338" y="544.5" width="106" height="45.5" as="geometry" />
        </mxCell>
        <mxCell id="pXMp4Kn1TM848HMNzgxB-10" style="edgeStyle=none;rounded=0;orthogonalLoop=1;jettySize=auto;html=1;exitX=0;exitY=0;exitDx=0;exitDy=0;strokeColor=default;strokeWidth=1;fontSize=10;startArrow=none;startFill=0;endArrow=none;endFill=0;" parent="1" source="pXMp4Kn1TM848HMNzgxB-8" edge="1">
          <mxGeometry relative="1" as="geometry">
            <mxPoint x="20" y="360" as="targetPoint" />
            <mxPoint x="260.0001948466052" y="685.8578643762689" as="sourcePoint" />
          </mxGeometry>
        </mxCell>
        <mxCell id="1_dE9CeZX_-XwsKLI6GI-3" value="&lt;font style=&quot;font-size: 9px;&quot;&gt;ANSWER TO&lt;br&gt;FEEDBACKS&lt;br style=&quot;font-size: 9px;&quot;&gt;&lt;/font&gt;" style="ellipse;whiteSpace=wrap;html=1;fillColor=#dae8fc;strokeColor=#6c8ebf;fontSize=9;strokeWidth=1;fillStyle=hatch;" parent="1" vertex="1">
          <mxGeometry x="554" y="542.25" width="96" height="50" as="geometry" />
        </mxCell>
        <mxCell id="1_dE9CeZX_-XwsKLI6GI-4" value="&amp;lt;&amp;lt;extends&amp;gt;&amp;gt;" style="endArrow=block;endFill=0;html=1;rounded=0;dashed=1;exitX=0;exitY=0.5;exitDx=0;exitDy=0;entryX=1;entryY=0.5;entryDx=0;entryDy=0;" parent="1" source="1_dE9CeZX_-XwsKLI6GI-3" target="pXMp4Kn1TM848HMNzgxB-8" edge="1">
          <mxGeometry x="-0.0014" width="160" relative="1" as="geometry">
            <mxPoint x="369.69600000000037" y="472.6500000000001" as="sourcePoint" />
            <mxPoint x="236.65787543474244" y="424.2137399911089" as="targetPoint" />
            <Array as="points" />
            <mxPoint as="offset" />
          </mxGeometry>
        </mxCell>
        <mxCell id="DfB1Rc1GSqb3oJZB00aj-3" value="&amp;lt;&amp;lt;include&amp;gt;&amp;gt;" style="html=1;verticalAlign=bottom;labelBackgroundColor=none;endArrow=open;endFill=0;dashed=1;rounded=0;exitX=1;exitY=0.5;exitDx=0;exitDy=0;entryX=0;entryY=0.5;entryDx=0;entryDy=0;" parent="1" source="tnNtf27b05TNXS0torjV-19" target="DfB1Rc1GSqb3oJZB00aj-4" edge="1">
          <mxGeometry x="0.5742" y="4" width="160" relative="1" as="geometry">
            <mxPoint x="480" y="320" as="sourcePoint" />
            <mxPoint x="700" y="310" as="targetPoint" />
            <mxPoint as="offset" />
          </mxGeometry>
        </mxCell>
        <mxCell id="DfB1Rc1GSqb3oJZB00aj-4" value="&lt;font style=&quot;font-size: 9px;&quot;&gt;SIGN UP AS A COMPANY&lt;br style=&quot;font-size: 9px;&quot;&gt;&lt;/font&gt;" style="ellipse;whiteSpace=wrap;html=1;fillColor=#d5e8d4;strokeColor=#82b366;fontSize=9;strokeWidth=1;fillStyle=hatch;" parent="1" vertex="1">
          <mxGeometry x="518.5" y="300" width="96" height="50" as="geometry" />
        </mxCell>
        <mxCell id="4EXxNEKRwu2IyCG4gfgw-3" style="rounded=0;orthogonalLoop=1;jettySize=auto;html=1;exitX=0;exitY=0;exitDx=0;exitDy=0;endArrow=none;endFill=0;" parent="1" source="4EXxNEKRwu2IyCG4gfgw-1" edge="1">
          <mxGeometry relative="1" as="geometry">
            <mxPoint x="20" y="360" as="targetPoint" />
          </mxGeometry>
        </mxCell>
        <mxCell id="4EXxNEKRwu2IyCG4gfgw-1" value="&lt;font size=&quot;1&quot; color=&quot;#333333&quot;&gt;POST JOB OFFER&lt;/font&gt;" style="ellipse;whiteSpace=wrap;html=1;fillColor=#f8cecc;strokeColor=#b85450;" parent="1" vertex="1">
          <mxGeometry x="380" y="640" width="120" height="40" as="geometry" />
        </mxCell>
        <mxCell id="4EXxNEKRwu2IyCG4gfgw-4" value="&lt;font style=&quot;font-size: 9px;&quot;&gt;ADD JOB&lt;br&gt;DESCRIPTION&lt;br style=&quot;font-size: 9px;&quot;&gt;&lt;/font&gt;" style="ellipse;whiteSpace=wrap;html=1;fillColor=#d5e8d4;strokeColor=#82b366;fontSize=9;strokeWidth=1;fillStyle=hatch;" parent="1" vertex="1">
          <mxGeometry x="570" y="640" width="90" height="40" as="geometry" />
        </mxCell>
        <mxCell id="4EXxNEKRwu2IyCG4gfgw-5" value="&amp;lt;&amp;lt;include&amp;gt;&amp;gt;" style="html=1;verticalAlign=bottom;labelBackgroundColor=none;endArrow=open;endFill=0;dashed=1;rounded=0;exitX=1;exitY=0.5;exitDx=0;exitDy=0;entryX=0;entryY=0.5;entryDx=0;entryDy=0;" parent="1" source="4EXxNEKRwu2IyCG4gfgw-1" target="4EXxNEKRwu2IyCG4gfgw-4" edge="1">
          <mxGeometry x="-0.1267" y="10" width="160" relative="1" as="geometry">
            <mxPoint x="260" y="310" as="sourcePoint" />
            <mxPoint x="510" y="310" as="targetPoint" />
            <mxPoint as="offset" />
          </mxGeometry>
        </mxCell>
        <mxCell id="6lg7WA40PPHaSfPapzCK-1" style="edgeStyle=none;rounded=0;orthogonalLoop=1;jettySize=auto;html=1;strokeColor=default;strokeWidth=1;fontSize=10;startArrow=none;startFill=0;endArrow=none;endFill=0;exitX=0.5;exitY=0;exitDx=0;exitDy=0;" parent="1" source="6lg7WA40PPHaSfPapzCK-2" edge="1">
          <mxGeometry relative="1" as="geometry">
            <mxPoint x="20" y="360" as="targetPoint" />
            <mxPoint x="239.9999999999998" y="596" as="sourcePoint" />
          </mxGeometry>
        </mxCell>
        <mxCell id="6lg7WA40PPHaSfPapzCK-2" value="&lt;font size=&quot;1&quot;&gt;VIEW NOTIFICATION&lt;/font&gt;" style="ellipse;whiteSpace=wrap;html=1;fillColor=#f8cecc;strokeColor=#b85450;" parent="1" vertex="1">
          <mxGeometry x="147.5" y="160" width="106" height="45.5" as="geometry" />
        </mxCell>
        <mxCell id="1Vnhm23oymRTcUFBXv8f-1" value="&lt;span style=&quot;caret-color: rgb(0, 0, 0); font-family: Helvetica; font-size: x-small; font-style: normal; font-variant-caps: normal; font-weight: 400; letter-spacing: normal; text-align: center; text-indent: 0px; text-transform: none; word-spacing: 0px; -webkit-text-stroke-width: 0px; text-decoration: none; float: none; display: inline !important;&quot;&gt;&lt;font color=&quot;#333333&quot;&gt;DEVELOPER&lt;/font&gt;&lt;/span&gt;" style="ellipse;whiteSpace=wrap;html=1;fillColor=#f8cecc;strokeColor=#b85450;" parent="1" vertex="1">
          <mxGeometry x="181.5" y="600" width="120" height="40" as="geometry" />
        </mxCell>
        <mxCell id="1Vnhm23oymRTcUFBXv8f-2" value="&lt;font style=&quot;font-size: 9px;&quot;&gt;SEND JOB&amp;nbsp;&lt;br&gt;OFFER&lt;br style=&quot;font-size: 9px;&quot;&gt;&lt;/font&gt;" style="ellipse;whiteSpace=wrap;html=1;fillColor=#dae8fc;strokeColor=#6c8ebf;fontSize=9;strokeWidth=1;fillStyle=hatch;" parent="1" vertex="1">
          <mxGeometry x="143.5" y="780" width="86" height="40" as="geometry" />
        </mxCell>
        <mxCell id="1Vnhm23oymRTcUFBXv8f-3" value="&lt;font style=&quot;font-size: 9px;&quot;&gt;FILTER SEARCH RESULT&lt;br style=&quot;font-size: 9px;&quot;&gt;&lt;/font&gt;" style="ellipse;whiteSpace=wrap;html=1;fillColor=#dae8fc;strokeColor=#6c8ebf;fontSize=9;strokeWidth=1;fillStyle=hatch;" parent="1" vertex="1">
          <mxGeometry x="253.5" y="780" width="86" height="40" as="geometry" />
        </mxCell>
        <mxCell id="1Vnhm23oymRTcUFBXv8f-5" value="&amp;lt;&amp;lt;extends&amp;gt;&amp;gt;" style="endArrow=block;endFill=0;html=1;rounded=0;dashed=1;exitX=0.5;exitY=0;exitDx=0;exitDy=0;entryX=0.5;entryY=1;entryDx=0;entryDy=0;" parent="1" source="1Vnhm23oymRTcUFBXv8f-3" target="1Vnhm23oymRTcUFBXv8f-13" edge="1">
          <mxGeometry x="-0.0014" width="160" relative="1" as="geometry">
            <mxPoint x="200.68019484660545" y="594.1421356237306" as="sourcePoint" />
            <mxPoint x="161.5" y="620" as="targetPoint" />
            <Array as="points" />
            <mxPoint as="offset" />
          </mxGeometry>
        </mxCell>
        <mxCell id="1Vnhm23oymRTcUFBXv8f-7" value="&amp;lt;&amp;lt;extends&amp;gt;&amp;gt;" style="endArrow=block;endFill=0;html=1;rounded=0;dashed=1;exitX=0.5;exitY=0;exitDx=0;exitDy=0;entryX=0.5;entryY=1;entryDx=0;entryDy=0;" parent="1" source="1Vnhm23oymRTcUFBXv8f-2" target="1Vnhm23oymRTcUFBXv8f-11" edge="1">
          <mxGeometry x="-0.014" width="160" relative="1" as="geometry">
            <mxPoint x="265.65999999999985" y="629.2799999999997" as="sourcePoint" />
            <mxPoint x="247.1400000000001" y="585.9599999999996" as="targetPoint" />
            <Array as="points" />
            <mxPoint as="offset" />
          </mxGeometry>
        </mxCell>
        <mxCell id="1Vnhm23oymRTcUFBXv8f-8" value="&lt;font style=&quot;font-size: 9px;&quot;&gt;FAVORITE&lt;br style=&quot;font-size: 9px;&quot;&gt;&lt;/font&gt;" style="ellipse;whiteSpace=wrap;html=1;fillColor=#dae8fc;strokeColor=#6c8ebf;fontSize=9;strokeWidth=1;fillStyle=hatch;" parent="1" vertex="1">
          <mxGeometry x="534.5" y="700" width="80" height="40" as="geometry" />
        </mxCell>
        <mxCell id="1Vnhm23oymRTcUFBXv8f-9" value="&amp;lt;&amp;lt;extends&amp;gt;&amp;gt;" style="endArrow=block;endFill=0;html=1;rounded=0;dashed=1;exitX=0;exitY=0.5;exitDx=0;exitDy=0;entryX=0.958;entryY=0.686;entryDx=0;entryDy=0;entryPerimeter=0;" parent="1" source="1Vnhm23oymRTcUFBXv8f-8" target="1Vnhm23oymRTcUFBXv8f-1" edge="1">
          <mxGeometry x="-0.014" width="160" relative="1" as="geometry">
            <mxPoint x="511.50000000000637" y="610" as="sourcePoint" />
            <mxPoint x="311.49999999999795" y="630" as="targetPoint" />
            <Array as="points">
              <mxPoint x="391.5" y="720" />
            </Array>
            <mxPoint as="offset" />
          </mxGeometry>
        </mxCell>
        <mxCell id="1Vnhm23oymRTcUFBXv8f-10" style="edgeStyle=orthogonalEdgeStyle;rounded=0;orthogonalLoop=1;jettySize=auto;html=1;exitX=0.5;exitY=0;exitDx=0;exitDy=0;entryX=0.5;entryY=1;entryDx=0;entryDy=0;" parent="1" source="1Vnhm23oymRTcUFBXv8f-11" target="1Vnhm23oymRTcUFBXv8f-1" edge="1">
          <mxGeometry relative="1" as="geometry" />
        </mxCell>
        <mxCell id="1Vnhm23oymRTcUFBXv8f-11" value="&lt;span style=&quot;caret-color: rgb(0, 0, 0); font-family: Helvetica; font-size: x-small; font-style: normal; font-variant-caps: normal; font-weight: 400; letter-spacing: normal; text-align: center; text-indent: 0px; text-transform: none; word-spacing: 0px; -webkit-text-stroke-width: 0px; text-decoration: none; float: none; display: inline !important;&quot;&gt;&lt;font color=&quot;#333333&quot;&gt;VIEW&lt;br&gt;DEVELOPER&lt;br&gt;PROFILE&lt;br&gt;&lt;/font&gt;&lt;/span&gt;" style="ellipse;whiteSpace=wrap;html=1;fillColor=#f8cecc;strokeColor=#b85450;" parent="1" vertex="1">
          <mxGeometry x="141.5" y="685" width="88.5" height="55" as="geometry" />
        </mxCell>
        <mxCell id="1Vnhm23oymRTcUFBXv8f-12" style="edgeStyle=orthogonalEdgeStyle;rounded=0;orthogonalLoop=1;jettySize=auto;html=1;exitX=0.5;exitY=0;exitDx=0;exitDy=0;" parent="1" source="1Vnhm23oymRTcUFBXv8f-13" edge="1">
          <mxGeometry relative="1" as="geometry">
            <mxPoint x="241.5" y="640" as="targetPoint" />
          </mxGeometry>
        </mxCell>
        <mxCell id="1Vnhm23oymRTcUFBXv8f-13" value="&lt;span style=&quot;caret-color: rgb(0, 0, 0); font-family: Helvetica; font-size: x-small; font-style: normal; font-variant-caps: normal; font-weight: 400; letter-spacing: normal; text-align: center; text-indent: 0px; text-transform: none; word-spacing: 0px; -webkit-text-stroke-width: 0px; text-decoration: none; float: none; display: inline !important;&quot;&gt;&lt;font color=&quot;#333333&quot;&gt;SEARCH&lt;br&gt;DEVELOPER&lt;br&gt;&lt;/font&gt;&lt;/span&gt;" style="ellipse;whiteSpace=wrap;html=1;fillColor=#f8cecc;strokeColor=#b85450;" parent="1" vertex="1">
          <mxGeometry x="251.5" y="685" width="88.5" height="55" as="geometry" />
        </mxCell>
        <mxCell id="oLMSUlT_Yt6ROWXrSTLa-1" style="rounded=0;orthogonalLoop=1;jettySize=auto;html=1;exitX=0.5;exitY=0;exitDx=0;exitDy=0;endArrow=none;endFill=0;" parent="1" source="1Vnhm23oymRTcUFBXv8f-1" edge="1">
          <mxGeometry relative="1" as="geometry">
            <mxPoint x="20" y="360" as="targetPoint" />
            <mxPoint x="407.57359312880726" y="655.8578643762689" as="sourcePoint" />
          </mxGeometry>
        </mxCell>
        <mxCell id="hS2WwUOv_IdwcJWy9joW-2" value="CANCEL&lt;br&gt;NOTIFICATION" style="ellipse;whiteSpace=wrap;html=1;fillColor=#dae8fc;strokeColor=#6c8ebf;fontSize=9;strokeWidth=1;fillStyle=hatch;" vertex="1" parent="1">
          <mxGeometry x="160.5" y="70" width="80" height="40" as="geometry" />
        </mxCell>
        <mxCell id="hS2WwUOv_IdwcJWy9joW-4" value="&amp;lt;&amp;lt;extends&amp;gt;&amp;gt;" style="endArrow=block;endFill=0;html=1;rounded=0;dashed=1;exitX=0.5;exitY=1;exitDx=0;exitDy=0;entryX=0.5;entryY=0;entryDx=0;entryDy=0;" edge="1" parent="1" source="hS2WwUOv_IdwcJWy9joW-2" target="6lg7WA40PPHaSfPapzCK-2">
          <mxGeometry x="-0.0091" width="160" relative="1" as="geometry">
            <mxPoint x="480" y="130" as="sourcePoint" />
            <mxPoint x="225.00000000000023" y="260" as="targetPoint" />
            <Array as="points" />
            <mxPoint as="offset" />
          </mxGeometry>
        </mxCell>
      </root>
    </mxGraphModel>
  </diagram>
</mxfile>
